<svg width="36" height="33" viewBox="0 0 36 33" fill="none" xmlns="http://www.w3.org/2000/svg">
<path d="M11.0506 15.4709C11.0506 16.6915 10.0611 17.6811 8.8405 17.6811C7.61988 17.6811 6.63037 16.6915 6.63037 15.4709C6.63037 14.2503 7.61988 13.2608 8.8405 13.2608C10.0611 13.2608 11.0506 14.2503 11.0506 15.4709ZM19.8911 15.4709C19.8911 16.6915 18.9016 17.6811 17.681 17.6811C16.4604 17.6811 15.4709 16.6915 15.4709 15.4709C15.4709 14.2503 16.4604 13.2608 17.681 13.2608C18.9016 13.2608 19.8911 14.2503 19.8911 15.4709ZM26.5215 17.6811C27.7421 17.6811 28.7316 16.6915 28.7316 15.4709C28.7316 14.2503 27.7421 13.2608 26.5215 13.2608C25.3009 13.2608 24.3114 14.2503 24.3114 15.4709C24.3114 16.6915 25.3009 17.6811 26.5215 17.6811Z" fill="white"/>
<path d="M4.78492 32.7165L4.82912 32.7076C8.87365 31.9054 11.3446 30.8467 12.4938 30.2655C14.1856 30.7183 15.9297 30.9456 17.681 30.9417C27.4453 30.9417 35.362 24.0152 35.362 15.4709C35.362 6.92653 27.4453 0 17.681 0C7.91667 0 0 6.92653 0 15.4709C0 19.3607 1.64212 22.919 4.35395 25.6375C4.16493 27.3838 3.77636 29.1027 3.19584 30.7605L3.18921 30.7848C3.02405 31.2596 2.84421 31.7291 2.64994 32.1927C2.47534 32.6038 2.81349 33.0635 3.2533 32.9927C3.76528 32.9088 4.27589 32.8167 4.78492 32.7165ZM6.55302 25.8474C6.6157 25.1923 6.38317 24.5433 5.91871 24.0771C3.57598 21.7255 2.21012 18.7153 2.21012 15.4709C2.21012 8.41616 8.84934 2.21012 17.681 2.21012C26.5127 2.21012 33.1519 8.41616 33.1519 15.4709C33.1519 22.5256 26.5127 28.7316 17.681 28.7316C16.123 28.7354 14.5713 28.5333 13.0663 28.1305C12.5402 27.9895 11.9806 28.0478 11.4949 28.294C10.6395 28.7272 8.7543 29.5538 5.67339 30.2677C6.10284 28.8247 6.39731 27.3449 6.55302 25.8474Z" fill="white"/>
</svg>
