<svg width="610" height="231" viewBox="0 0 610 231" fill="none" xmlns="http://www.w3.org/2000/svg">
<path d="M154 63.92C156.96 63.92 159.547 64.5067 161.76 65.68C163.973 66.8533 165.68 68.5067 166.88 70.64C168.107 72.7467 168.72 75.1867 168.72 77.96C168.72 80.7067 168.107 83.1467 166.88 85.28C165.68 87.4133 163.96 89.0667 161.72 90.24C159.507 91.4133 156.933 92 154 92H143.48V63.92H154ZM153.56 86.08C156.147 86.08 158.16 85.3733 159.6 83.96C161.04 82.5467 161.76 80.5467 161.76 77.96C161.76 75.3733 161.04 73.36 159.6 71.92C158.16 70.48 156.147 69.76 153.56 69.76H150.32V86.08H153.56ZM179.383 73.4C180.183 72.1733 181.183 71.2133 182.383 70.52C183.583 69.8 184.916 69.44 186.383 69.44V76.68H184.503C182.796 76.68 181.516 77.0533 180.663 77.8C179.809 78.52 179.383 79.8 179.383 81.64V92H172.543V69.68H179.383V73.4ZM188.292 80.8C188.292 78.5067 188.719 76.4933 189.572 74.76C190.452 73.0267 191.639 71.6933 193.132 70.76C194.625 69.8267 196.292 69.36 198.132 69.36C199.705 69.36 201.079 69.68 202.252 70.32C203.452 70.96 204.372 71.8 205.012 72.84V69.68H211.852V92H205.012V88.84C204.345 89.88 203.412 90.72 202.212 91.36C201.039 92 199.665 92.32 198.092 92.32C196.279 92.32 194.625 91.8533 193.132 90.92C191.639 89.96 190.452 88.6133 189.572 86.88C188.719 85.12 188.292 83.0933 188.292 80.8ZM205.012 80.84C205.012 79.1333 204.532 77.7867 203.572 76.8C202.639 75.8133 201.492 75.32 200.132 75.32C198.772 75.32 197.612 75.8133 196.652 76.8C195.719 77.76 195.252 79.0933 195.252 80.8C195.252 82.5067 195.719 83.8667 196.652 84.88C197.612 85.8667 198.772 86.36 200.132 86.36C201.492 86.36 202.639 85.8667 203.572 84.88C204.532 83.8933 205.012 82.5467 205.012 80.84ZM248.84 69.68L242.8 92H235.24L231.72 77.52L228.08 92H220.56L214.48 69.68H221.32L224.48 85.64L228.24 69.68H235.48L239.28 85.56L242.4 69.68H248.84ZM282.725 69.68L268.725 102.6H261.365L266.485 91.24L257.405 69.68H265.045L270.205 83.64L275.325 69.68H282.725ZM295.359 92.32C293.172 92.32 291.199 91.8533 289.439 90.92C287.705 89.9867 286.332 88.6533 285.319 86.92C284.332 85.1867 283.839 83.16 283.839 80.84C283.839 78.5467 284.345 76.5333 285.359 74.8C286.372 73.04 287.759 71.6933 289.519 70.76C291.279 69.8267 293.252 69.36 295.439 69.36C297.625 69.36 299.599 69.8267 301.359 70.76C303.119 71.6933 304.505 73.04 305.519 74.8C306.532 76.5333 307.039 78.5467 307.039 80.84C307.039 83.1333 306.519 85.16 305.479 86.92C304.465 88.6533 303.065 89.9867 301.279 90.92C299.519 91.8533 297.545 92.32 295.359 92.32ZM295.359 86.4C296.665 86.4 297.772 85.92 298.679 84.96C299.612 84 300.079 82.6267 300.079 80.84C300.079 79.0533 299.625 77.68 298.719 76.72C297.839 75.76 296.745 75.28 295.439 75.28C294.105 75.28 292.999 75.76 292.119 76.72C291.239 77.6533 290.799 79.0267 290.799 80.84C290.799 82.6267 291.225 84 292.079 84.96C292.959 85.92 294.052 86.4 295.359 86.4ZM332.708 69.68V92H325.868V88.96C325.174 89.9467 324.228 90.7467 323.028 91.36C321.854 91.9467 320.548 92.24 319.108 92.24C317.401 92.24 315.894 91.8667 314.588 91.12C313.281 90.3467 312.268 89.24 311.548 87.8C310.828 86.36 310.468 84.6667 310.468 82.72V69.68H317.268V81.8C317.268 83.2933 317.654 84.4533 318.428 85.28C319.201 86.1067 320.241 86.52 321.548 86.52C322.881 86.52 323.934 86.1067 324.708 85.28C325.481 84.4533 325.868 83.2933 325.868 81.8V69.68H332.708ZM344.461 73.4C345.261 72.1733 346.261 71.2133 347.461 70.52C348.661 69.8 349.994 69.44 351.461 69.44V76.68H349.581C347.874 76.68 346.594 77.0533 345.741 77.8C344.887 78.52 344.461 79.8 344.461 81.64V92H337.621V69.68H344.461V73.4ZM373.367 92.32C371.18 92.32 369.207 91.8533 367.447 90.92C365.713 89.9867 364.34 88.6533 363.327 86.92C362.34 85.1867 361.847 83.16 361.847 80.84C361.847 78.5467 362.353 76.5333 363.367 74.8C364.38 73.04 365.767 71.6933 367.527 70.76C369.287 69.8267 371.26 69.36 373.447 69.36C375.633 69.36 377.607 69.8267 379.367 70.76C381.127 71.6933 382.513 73.04 383.527 74.8C384.54 76.5333 385.047 78.5467 385.047 80.84C385.047 83.1333 384.527 85.16 383.487 86.92C382.473 88.6533 381.073 89.9867 379.287 90.92C377.527 91.8533 375.553 92.32 373.367 92.32ZM373.367 86.4C374.673 86.4 375.78 85.92 376.687 84.96C377.62 84 378.087 82.6267 378.087 80.84C378.087 79.0533 377.633 77.68 376.727 76.72C375.847 75.76 374.753 75.28 373.447 75.28C372.113 75.28 371.007 75.76 370.127 76.72C369.247 77.6533 368.807 79.0267 368.807 80.84C368.807 82.6267 369.233 84 370.087 84.96C370.967 85.92 372.06 86.4 373.367 86.4ZM420.715 69.68L414.675 92H407.115L403.595 77.52L399.955 92H392.435L386.355 69.68H393.195L396.355 85.64L400.115 69.68H407.355L411.155 85.56L414.275 69.68H420.715ZM436.924 69.44C439.537 69.44 441.617 70.2933 443.164 72C444.737 73.68 445.524 76 445.524 78.96V92H438.724V79.88C438.724 78.3867 438.337 77.2267 437.564 76.4C436.79 75.5733 435.75 75.16 434.444 75.16C433.137 75.16 432.097 75.5733 431.324 76.4C430.55 77.2267 430.164 78.3867 430.164 79.88V92H423.324V69.68H430.164V72.64C430.857 71.6533 431.79 70.88 432.964 70.32C434.137 69.7333 435.457 69.44 436.924 69.44Z" fill="#FFFF99"/>
<path d="M39.75 214.5C29.75 214.5 22.4167 211.917 17.75 206.75C13.25 201.417 11 194.417 11 185.75C11 182.583 11.25 179.25 11.75 175.75C12.25 172.083 13.0833 168.333 14.25 164.5C16.0833 158 18.75 150.667 22.25 142.5C25.75 134.333 29.8333 126.083 34.5 117.75C39.1667 109.417 44.1667 101.583 49.5 94.25C54.8333 86.9167 60.25 80.9167 65.75 76.25C70.75 71.9167 76.1667 68.6667 82 66.5C88 64.1667 93.6667 63 99 63C108.667 63 115.5 65.1667 119.5 69.5C123.667 73.8333 125.75 79.1667 125.75 85.5C125.75 90.5 124.667 95.6667 122.5 101C120.333 106.333 117.333 111.5 113.5 116.5C109.833 121.333 105.583 125.5 100.75 129C95.9167 132.5 90.75 134.75 85.25 135.75C84.5833 135.917 83.75 136 82.75 136C81.5833 136 81 135.667 81 135C81 134.5 81.3333 133.917 82 133.25C82.6667 132.417 83.3333 131.667 84 131C85.3333 129.667 87.4167 127.25 90.25 123.75C93.25 120.083 96.3333 115.917 99.5 111.25C102.667 106.417 105.25 101.75 107.25 97.25C110.25 90.9167 111.75 85.5 111.75 81C111.75 76.3333 110.167 74 107 74C104.667 74 101.5 75.5833 97.5 78.75C93.6667 81.75 89.0833 86.9167 83.75 94.25C79.75 99.5833 75.9167 105.25 72.25 111.25C68.75 117.083 65.6667 122.583 63 127.75C60.3333 132.75 58.25 136.833 56.75 140C53.5833 147.5 50.75 155.5 48.25 164C45.75 172.333 44.5 179.75 44.5 186.25C44.5 191.25 45.4167 195.333 47.25 198.5C49.0833 201.5 52.25 203 56.75 203C61.4167 203 66.1667 201.333 71 198C75.8333 194.5 80.4167 190.167 84.75 185C89.25 179.667 93.3333 174.167 97 168.5C100.833 162.667 104 157.333 106.5 152.5C107.667 152.667 109.333 152.833 111.5 153C113.833 153.167 115 154.75 115 157.75C115 159.417 114.5 161.583 113.5 164.25C112.5 166.75 110.75 170.167 108.25 174.5C102.917 183.333 95.75 191.167 86.75 198C77.75 204.833 68.6667 209.417 59.5 211.75C55.8333 212.75 52.3333 213.417 49 213.75C45.6667 214.25 42.5833 214.5 39.75 214.5ZM136.404 214.5C128.238 214.5 122.488 212.667 119.154 209C115.988 205.167 114.404 200.417 114.404 194.75C114.404 188.75 115.488 182.333 117.654 175.5C119.988 168.5 122.571 162.083 125.404 156.25C128.404 150.25 130.738 145.667 132.404 142.5C139.238 129.833 147.071 120.583 155.904 114.75C164.904 108.917 174.821 106 185.654 106C189.488 106 193.988 106.167 199.154 106.5C204.321 106.833 209.571 107 214.904 107C217.571 107 220.154 106.917 222.654 106.75C225.154 106.583 227.571 106.5 229.904 106.5H230.904C233.738 106.5 235.154 107 235.154 108C235.154 108.667 234.154 109.417 232.154 110.25C229.988 111.083 227.404 113.917 224.404 118.75C221.404 123.417 218.321 129.083 215.154 135.75C211.988 142.417 208.988 149.167 206.154 156C204.654 159.833 202.654 165 200.154 171.5C197.654 177.833 195.821 184.333 194.654 191C194.488 192.167 194.321 193.25 194.154 194.25C194.154 195.083 194.154 195.917 194.154 196.75C194.154 200.917 195.238 203 197.404 203C200.071 203 202.821 201.583 205.654 198.75C208.488 195.917 211.238 192.5 213.904 188.5C216.238 185 218.571 181.083 220.904 176.75C223.238 172.417 225.321 168.417 227.154 164.75C228.988 160.917 230.321 158.25 231.154 156.75C231.654 155.75 232.321 155.25 233.154 155.25C234.154 155.25 235.071 156 235.904 157.5C236.738 158.833 236.821 160.167 236.154 161.5C232.988 167.667 229.571 174.25 225.904 181.25C222.238 188.25 218.238 194.583 213.904 200.25C206.571 209.75 198.071 214.5 188.404 214.5C181.071 214.5 175.654 212.25 172.154 207.75C168.821 203.25 167.154 197.833 167.154 191.5C167.154 188.667 167.404 185.917 167.904 183.25C166.071 186.25 163.821 190.167 161.154 195C158.488 199.667 155.404 203.917 151.904 207.75C148.571 211.583 144.821 213.75 140.654 214.25C139.988 214.25 139.321 214.25 138.654 214.25C137.988 214.417 137.238 214.5 136.404 214.5ZM145.654 201.75C147.321 201.75 149.488 200.25 152.154 197.25C154.988 194.25 157.821 190.5 160.654 186C163.654 181.333 166.238 176.667 168.404 172C168.904 170.667 170.071 167.833 171.904 163.5C173.904 159 176.071 153.833 178.404 148C180.904 142 183.404 136 185.904 130C188.404 124 190.571 118.75 192.404 114.25C192.571 113.75 192.654 113.167 192.654 112.5C192.654 111.5 192.154 111 191.154 111C190.154 111 188.988 111.417 187.654 112.25C186.321 112.917 185.071 113.667 183.904 114.5C181.738 116.167 178.904 119.667 175.404 125C172.071 130.167 168.488 136.25 164.654 143.25C160.988 150.25 157.488 157.417 154.154 164.75C150.821 171.917 148.071 178.5 145.904 184.5C143.904 190.333 142.904 194.75 142.904 197.75C142.904 200.417 143.821 201.75 145.654 201.75ZM288.617 215C280.117 215 274.367 212.667 271.367 208C268.367 203.333 266.867 197.917 266.867 191.75C266.867 187.25 267.367 182.75 268.367 178.25C269.367 173.75 270.451 169.75 271.617 166.25C272.784 162.75 273.617 160.333 274.117 159C276.117 153 278.201 147.25 280.367 141.75C282.701 136.083 284.451 132.167 285.617 130C285.117 130.833 283.284 133.25 280.117 137.25C276.951 141.25 273.201 146.25 268.867 152.25C264.701 158.083 260.534 164.333 256.367 171C252.201 177.5 248.701 183.833 245.867 190C243.201 196 241.867 201.167 241.867 205.5C241.867 208.5 242.534 210.667 243.867 212C244.367 212.5 244.617 212.917 244.617 213.25C244.617 214.083 243.701 214.333 241.867 214C238.034 213.333 234.284 212.667 230.617 212C226.951 211.167 223.867 209.583 221.367 207.25C219.034 204.75 217.867 200.667 217.867 195C217.867 190.5 219.034 185.083 221.367 178.75C223.701 172.25 226.451 165.583 229.617 158.75C232.784 151.917 235.534 145.583 237.867 139.75C238.367 138.417 239.201 136.417 240.367 133.75C241.534 130.917 242.701 128 243.867 125C245.201 121.833 246.201 119.083 246.867 116.75C247.534 114.25 247.701 112.583 247.367 111.75C247.034 111.083 246.867 110.583 246.867 110.25C246.867 108.25 248.201 107.25 250.867 107.25C253.534 107.25 256.201 107.667 258.867 108.5C261.701 109.167 264.201 110.333 266.367 112C268.701 113.667 270.534 115.667 271.867 118C273.201 120.333 273.867 122.917 273.867 125.75C273.867 127.583 273.451 129.75 272.617 132.25C272.284 133.417 271.534 135 270.367 137C269.367 138.833 268.284 140.833 267.117 143C265.951 145.167 264.701 147.417 263.367 149.75C262.201 152.083 261.784 153.333 262.117 153.5C266.284 146.167 270.784 139.333 275.617 133C280.617 126.5 285.117 120.917 289.117 116.25C293.284 111.583 296.034 108.167 297.367 106C298.701 105 300.867 104.5 303.867 104.5C307.367 104.5 310.951 105.583 314.617 107.75C318.284 109.917 320.117 113.833 320.117 119.5C320.117 124.167 318.451 129.833 315.117 136.5C307.951 150.167 302.451 162.5 298.617 173.5C294.784 184.333 292.867 192.333 292.867 197.5C292.867 201.167 293.867 203 295.867 203C298.201 203 300.867 201.5 303.867 198.5C306.867 195.5 309.701 191.917 312.367 187.75C316.034 182.417 319.367 176.75 322.367 170.75C325.534 164.75 327.701 160.583 328.867 158.25C329.367 157.25 330.117 156.75 331.117 156.75C332.117 156.75 333.034 157.333 333.867 158.5C334.867 159.5 335.034 160.667 334.367 162C333.201 164.333 331.451 167.583 329.117 171.75C326.951 175.917 324.451 180.417 321.617 185.25C318.784 189.917 315.701 194.417 312.367 198.75C308.701 203.75 305.034 207.75 301.367 210.75C297.701 213.583 293.451 215 288.617 215ZM337.256 214.25C333.256 214.25 330.006 213.333 327.506 211.5C325.173 209.667 323.589 207.25 322.756 204.25C321.756 200.75 321.256 196.833 321.256 192.5C321.256 187 321.923 181.25 323.256 175.25C324.756 169.083 326.589 163.167 328.756 157.5C329.423 155.667 330.506 152.75 332.006 148.75C333.673 144.75 335.339 140.417 337.006 135.75C338.673 130.917 340.089 126.25 341.256 121.75C342.423 117.25 343.006 113.583 343.006 110.75C343.006 108.917 342.756 107.667 342.256 107C341.423 105.667 341.839 105.083 343.506 105.25C344.839 105.417 346.173 105.667 347.506 106C349.006 106.167 350.423 106.5 351.756 107C358.423 109.167 363.006 112.167 365.506 116C368.006 119.667 369.256 123.333 369.256 127C369.256 127.667 369.256 128.333 369.256 129C369.256 129.5 369.173 130.083 369.006 130.75C368.673 132.583 367.506 136.083 365.506 141.25C363.506 146.417 361.173 152.25 358.506 158.75C356.006 165.25 353.589 171.583 351.256 177.75C349.089 183.917 347.506 189 346.506 193C346.339 193.667 346.173 194.25 346.006 194.75C346.006 195.083 346.006 195.417 346.006 195.75C346.006 197.75 346.673 198.75 348.006 198.75C349.006 198.75 350.423 198 352.256 196.5C354.756 194.167 357.923 190.25 361.756 184.75C365.756 179.083 370.339 171.333 375.506 161.5C379.339 154.333 382.339 147.25 384.506 140.25C386.839 133.25 388.006 127.083 388.006 121.75C388.006 115.75 386.423 111.25 383.256 108.25C382.589 107.583 382.256 107.25 382.256 107.25C382.256 106.917 383.256 106.667 385.256 106.5C386.089 106.5 386.923 106.5 387.756 106.5C388.756 106.333 389.589 106.25 390.256 106.25C399.089 106.25 405.506 107.75 409.506 110.75C413.673 113.583 415.756 117 415.756 121C415.756 121.833 415.589 122.917 415.256 124.25C414.089 128.583 412.089 133.917 409.256 140.25C406.589 146.583 403.173 153.167 399.006 160C396.173 164.833 394.173 169 393.006 172.5C391.839 176 391.256 179.333 391.256 182.5C391.256 188.833 393.006 192 396.506 192C399.339 192 402.173 190.167 405.006 186.5C407.006 184.167 409.006 181.333 411.006 178C413.173 174.667 415.173 171.333 417.006 168C418.839 164.5 420.339 161.583 421.506 159.25C422.006 158.083 422.923 157.5 424.256 157.5C425.256 157.5 426.173 158 427.006 159C427.839 159.833 427.923 160.917 427.256 162.25C425.756 165.083 423.923 168.667 421.756 173C419.756 177.167 417.339 181.333 414.506 185.5C411.839 189.5 408.839 192.75 405.506 195.25C402.006 197.917 398.506 199.25 395.006 199.25C391.339 199.25 388.589 197.833 386.756 195C384.923 192.167 384.006 188.917 384.006 185.25C384.006 184.583 384.006 183.917 384.006 183.25C384.006 182.583 384.089 181.917 384.256 181.25C377.089 190.25 369.423 198 361.256 204.5C353.089 211 345.089 214.25 337.256 214.25ZM433.768 214.5C425.601 214.5 419.851 212.667 416.518 209C413.351 205.167 411.768 200.417 411.768 194.75C411.768 188.75 412.851 182.333 415.018 175.5C417.351 168.5 419.934 162.083 422.768 156.25C425.768 150.25 428.101 145.667 429.768 142.5C436.601 129.833 444.434 120.583 453.268 114.75C462.268 108.917 472.184 106 483.018 106C486.851 106 491.351 106.167 496.518 106.5C501.684 106.833 506.934 107 512.268 107C514.934 107 517.518 106.917 520.018 106.75C522.518 106.583 524.934 106.5 527.268 106.5H528.268C531.101 106.5 532.518 107 532.518 108C532.518 108.667 531.518 109.417 529.518 110.25C527.351 111.083 524.768 113.917 521.768 118.75C518.768 123.417 515.684 129.083 512.518 135.75C509.351 142.417 506.351 149.167 503.518 156C502.018 159.833 500.018 165 497.518 171.5C495.018 177.833 493.184 184.333 492.018 191C491.851 192.167 491.684 193.25 491.518 194.25C491.518 195.083 491.518 195.917 491.518 196.75C491.518 200.917 492.601 203 494.768 203C497.434 203 500.184 201.583 503.018 198.75C505.851 195.917 508.601 192.5 511.268 188.5C513.601 185 515.934 181.083 518.268 176.75C520.601 172.417 522.684 168.417 524.518 164.75C526.351 160.917 527.684 158.25 528.518 156.75C529.018 155.75 529.684 155.25 530.518 155.25C531.518 155.25 532.434 156 533.268 157.5C534.101 158.833 534.184 160.167 533.518 161.5C530.351 167.667 526.934 174.25 523.268 181.25C519.601 188.25 515.601 194.583 511.268 200.25C503.934 209.75 495.434 214.5 485.768 214.5C478.434 214.5 473.018 212.25 469.518 207.75C466.184 203.25 464.518 197.833 464.518 191.5C464.518 188.667 464.768 185.917 465.268 183.25C463.434 186.25 461.184 190.167 458.518 195C455.851 199.667 452.768 203.917 449.268 207.75C445.934 211.583 442.184 213.75 438.018 214.25C437.351 214.25 436.684 214.25 436.018 214.25C435.351 214.417 434.601 214.5 433.768 214.5ZM443.018 201.75C444.684 201.75 446.851 200.25 449.518 197.25C452.351 194.25 455.184 190.5 458.018 186C461.018 181.333 463.601 176.667 465.768 172C466.268 170.667 467.434 167.833 469.268 163.5C471.268 159 473.434 153.833 475.768 148C478.268 142 480.768 136 483.268 130C485.768 124 487.934 118.75 489.768 114.25C489.934 113.75 490.018 113.167 490.018 112.5C490.018 111.5 489.518 111 488.518 111C487.518 111 486.351 111.417 485.018 112.25C483.684 112.917 482.434 113.667 481.268 114.5C479.101 116.167 476.268 119.667 472.768 125C469.434 130.167 465.851 136.25 462.018 143.25C458.351 150.25 454.851 157.417 451.518 164.75C448.184 171.917 445.434 178.5 443.268 184.5C441.268 190.333 440.268 194.75 440.268 197.75C440.268 200.417 441.184 201.75 443.018 201.75ZM549.73 214.75C539.564 214.75 531.147 211.75 524.48 205.75C517.814 199.75 514.48 191.417 514.48 180.75C514.48 177.083 514.897 173.25 515.73 169.25C516.564 165.25 517.897 161.833 519.73 159C521.564 156.167 523.98 154.75 526.98 154.75C528.814 154.75 530.147 155.333 530.98 156.5C532.98 152.667 535.147 148.833 537.48 145C539.814 141.167 542.147 137.25 544.48 133.25C547.147 128.917 550.23 124.167 553.73 119C557.397 113.667 561.564 109 566.23 105C570.897 100.833 575.98 98.5 581.48 98C582.147 97.8333 582.814 97.75 583.48 97.75C584.314 97.75 585.064 97.75 585.73 97.75C587.564 97.75 589.48 97.8333 591.48 98C593.48 98.1667 594.98 98.3333 595.98 98.5C596.314 98.6667 596.564 99.1667 596.73 100C596.897 100.833 596.48 101.25 595.48 101.25C594.814 101.25 593.48 101.75 591.48 102.75C589.48 103.583 588.314 105.667 587.98 109C587.647 120.667 586.897 132.333 585.73 144C584.73 155.667 583.147 165.417 580.98 173.25C579.98 177.25 578.397 181.583 576.23 186.25C574.064 190.917 571.48 195.083 568.48 198.75C565.48 202.417 562.314 204.917 558.98 206.25C562.314 206.25 565.814 205.25 569.48 203.25C573.314 201.083 576.814 198.5 579.98 195.5C583.314 192.5 585.814 189.833 587.48 187.5C591.147 182.333 594.48 176.917 597.48 171.25C600.647 165.417 602.98 160.917 604.48 157.75C604.98 156.917 605.564 156.5 606.23 156.5C607.064 156.5 607.814 157 608.48 158C609.147 159 609.48 160.083 609.48 161.25C609.48 161.583 609.397 161.917 609.23 162.25C609.23 162.583 609.147 162.917 608.98 163.25C605.98 169.25 602.647 175.333 598.98 181.5C595.48 187.5 591.397 193.083 586.73 198.25C582.064 203.25 576.73 207.25 570.73 210.25C564.73 213.25 557.73 214.75 549.73 214.75ZM533.48 199C535.314 199 537.147 198.417 538.98 197.25C540.814 196.083 542.314 194.25 543.48 191.75C545.98 186.25 548.23 179.917 550.23 172.75C552.23 165.583 553.98 158.5 555.48 151.5C556.98 144.333 558.23 138 559.23 132.5C560.397 126.833 561.23 122.75 561.73 120.25C559.23 123.25 556.147 127.5 552.48 133C548.98 138.5 545.564 144 542.23 149.5C539.064 155 536.647 159.417 534.98 162.75C535.147 166.583 533.647 170 530.48 173C527.314 176 524.564 179.083 522.23 182.25V185C522.23 185.667 522.23 186.5 522.23 187.5C522.397 188.5 522.564 189.417 522.73 190.25C523.564 192.917 524.98 195.083 526.98 196.75C529.147 198.25 531.314 199 533.48 199Z" fill="white"/>
</svg>
