<svg width="75" height="75" viewBox="0 0 75 75" fill="none" xmlns="http://www.w3.org/2000/svg">
<path d="M74.6609 71.4522C73.3965 56.37 63.069 43.8963 49.1078 39.3594C54.9569 35.5716 58.8403 29.0266 58.8403 21.5572C58.8456 9.82719 49.3044 0.3125 37.5425 0.3125C25.7753 0.3125 16.234 9.82719 16.234 21.5572C16.234 29.0266 20.1175 35.5716 25.9665 39.3647C12.0053 43.8962 1.68312 56.37 0.413431 71.4522C0.397493 71.7391 0.360306 71.9037 0.413431 72.2969C0.519681 73.625 1.69374 74.6875 3.02718 74.6875C4.51468 74.6875 5.68874 73.4709 5.68874 72.0312C7.0753 55.6156 20.8187 42.8178 37.5425 42.8178C54.2609 42.8178 68.0043 55.6156 69.3909 72.0312C69.3909 73.4709 70.565 74.6875 72.0525 74.6875C73.3859 74.6875 74.56 73.625 74.6609 72.2969C74.714 71.9037 74.6822 71.7337 74.6609 71.4522ZM21.5625 21.5572C21.5625 12.7597 28.7184 5.625 37.5425 5.625C46.3665 5.625 53.5172 12.7597 53.5172 21.5572C53.5172 30.36 46.3665 37.4947 37.5425 37.4947C28.7184 37.4947 21.5625 30.36 21.5625 21.5572Z" fill="white"/>
</svg>
